<mxfile host="app.diagrams.net" modified="2023-08-01T07:55:08.452Z" agent="Mozilla/5.0 (Windows NT 10.0; Win64; x64) AppleWebKit/537.36 (KHTML, like Gecko) Chrome/114.0.0.0 Safari/537.36" version="21.3.2" etag="BBSkLRNppo584iySK4hh" type="github">
  <diagram name="‫עמוד-1‬" id="lj23NBmgsIJSw9lJYYb2">
    <mxGraphModel>
      <root>
        <mxCell id="0" />
        <mxCell id="1" parent="0" />
      </root>
    </mxGraphModel>
  </diagram>
</mxfile>
